<?xml version="1.0" encoding="UTF-8"?>
<svg width="37px" height="23px" viewBox="0 0 37 23" version="1.1" xmlns="http://www.w3.org/2000/svg" xmlns:xlink="http://www.w3.org/1999/xlink">
    <!-- Generator: Sketch 52.2 (67145) - http://www.bohemiancoding.com/sketch -->
    <title>Add Folder</title>
    <desc>Created with Sketch.</desc>
    <g id="Page-1" stroke="none" stroke-width="1" fill="none" fill-rule="evenodd">
        <g id="Add-Folder" fill="#E74D4D">
            <g id="Group_349">
                <g id="Group_348" transform="translate(10.841000, 0.000000)">
                    <g id="Group_347">
                        <path d="M0.718,0 L7.9,0 C8.12470253,0.00470149749 8.33541728,0.110058873 8.474,0.287 L10.197,2.587 C10.3355827,2.76394113 10.5462975,2.8692985 10.771,2.874 L25.128,2.874 C25.5240845,2.87509871 25.8449013,3.19591554 25.846,3.592 L25.846,21.539 C25.8449013,21.9350845 25.5240845,22.2559013 25.128,22.257 L0.718,22.257 C0.321915545,22.2559013 0.00109871495,21.9350845 0,21.539 L0,0.718 C0.00109871495,0.321915545 0.321915545,0.00109871495 0.718,0 Z" id="Path_153"></path>
                    </g>
                </g>
                <polygon id="Path_154" points="8.436 11.667 5.313 11.667 5.313 8.544 3.159 8.544 3.159 11.667 0 11.667 0 13.821 3.159 13.821 3.159 16.944 5.313 16.944 5.313 13.821 8.436 13.821"></polygon>
            </g>
        </g>
    </g>
</svg>