<?xml version="1.0" encoding="UTF-8"?>
<svg width="20px" height="20px" viewBox="0 0 20 20" version="1.1" xmlns="http://www.w3.org/2000/svg" xmlns:xlink="http://www.w3.org/1999/xlink">
    <!-- Generator: Sketch 52.2 (67145) - http://www.bohemiancoding.com/sketch -->
    <title>Calendar - Unselected</title>
    <desc>Created with Sketch.</desc>
    <g id="Page-1" stroke="none" stroke-width="1" fill="none" fill-rule="evenodd" fill-opacity="0.25">
        <g id="Calendar---Unselected" fill="#000000">
            <g id="Calendar" transform="translate(0.000000, 0.776000)">
                <g id="Group_222">
                    <g id="Group_220" transform="translate(3.859000, 6.637000)">
                        <rect id="Rectangle_314" x="0" y="0" width="15.435" height="1"></rect>
                    </g>
                    <g id="Group_221" fill-rule="nonzero">
                        <path d="M0,0 L0,18.768 L19.293,18.768 L19.293,0 L0,0 Z M1.932,5.536 L17.362,5.536 L17.362,16.836 L1.932,16.836 L1.932,5.536 Z" id="Path_124"></path>
                    </g>
                </g>
                <g id="Group_223" transform="translate(4.017000, 7.161000)">
                    <path d="M0,4.031 C0,1.462 1.424,3.55271368e-15 3.337,3.55271368e-15 C5.25,3.55271368e-15 6.674,1.457 6.674,4.031 C6.674,6.605 5.262,8.062 3.337,8.062 C1.412,8.062 0,6.6 0,4.031 Z M4.864,4.031 C4.864,2.262 4.24,1.531 3.341,1.531 C2.442,1.531 1.826,2.266 1.826,4.031 C1.826,5.796 2.45,6.531 3.341,6.531 C4.232,6.531 4.864,5.8 4.864,4.031 Z" id="Path_125" fill-rule="nonzero"></path>
                    <polygon id="Path_126" points="11.161 0.135 11.161 7.925 9.361 7.925 9.361 1.584 7.799 1.584 7.799 0.135"></polygon>
                </g>
            </g>
        </g>
    </g>
</svg>