<?xml version="1.0" encoding="UTF-8"?>
<svg width="31px" height="29px" viewBox="0 0 31 29" version="1.1" xmlns="http://www.w3.org/2000/svg" xmlns:xlink="http://www.w3.org/1999/xlink">
    <!-- Generator: Sketch 52.2 (67145) - http://www.bohemiancoding.com/sketch -->
    <title>Explore - Unselected</title>
    <desc>Created with Sketch.</desc>
    <g id="Page-1" stroke="none" stroke-width="1" fill="none" fill-rule="evenodd">
        <g id="Explore---Unselected" stroke="#E74D4D">
            <g id="Unselected_Explore_Experiences">
                <path d="M30.148,0.743 L30.148,2.389 C29.413,3.469 28.391,5.062 27.37,6.877 C26.4526007,8.43170654 25.6359224,10.0436859 24.925,11.703 C22.655,16.815 20.046,22.493 17.825,27.603 L13.966,27.603 C11.019,20.73 6.98,12.099 3.234,4.437 C2.92028812,3.69374107 2.33011255,3.10141419 1.588,2.785 L0.853,2.389 L0.853,0.743 L16.353,0.743 L16.353,2.389 L15.501,2.675 L15.332,2.733 C15.093984,2.79875143 14.8661717,2.89701022 14.655,3.025 C13.99,3.451 13.815,4.169 14.255,5.231 C14.389,5.552 14.518,5.879 14.655,6.2 C14.935,6.877 15.221,7.566 15.501,8.254 C16.901,11.654 18.378,15.21 19.814,18.566 C21.063,15.672 22.084,13.116 22.825,11.301 C23.2916989,10.2581821 23.2276776,9.05443242 22.653,8.067 C21.8896646,6.12726067 21.0186429,4.23164506 20.044,2.389 L20.044,0.743 L30.148,0.743 Z" id="Path_133"></path>
            </g>
        </g>
    </g>
</svg>