<svg xmlns="http://www.w3.org/2000/svg" xmlns:xlink="http://www.w3.org/1999/xlink" viewBox="0 0 91 93">
  <defs>
    <style>
      .cls-1 {
        clip-path: url(#clip-Artboard_6);
      }

      .cls-2 {
        fill: #e74d4d;
      }

      .cls-3 {
        fill: #fff;
      }
    </style>
    <clipPath id="clip-Artboard_6">
      <rect width="91" height="93"/>
    </clipPath>
  </defs>
  <g id="Artboard_6" data-name="Artboard – 6" class="cls-1">
    <rect class="cls-3" width="91" height="93"/>
    <g id="Selected_Location" data-name="Selected Location" transform="translate(-33.836 -671.023)">
      <path id="Path_128" data-name="Path 128" class="cls-2" d="M9.33.212C8.983.132,8.631.072,8.278,0H7.067c-.227.04-.453.08-.677.118A7.6,7.6,0,0,0,1.119,11.575q3.119,5.089,6.249,10.173c.069.106.143.209.235.344.069-.095.12-.158.163-.227q3.214-5.236,6.419-10.474a7.121,7.121,0,0,0,1-3.324A7.636,7.636,0,0,0,9.33.212ZM7.423,11.7a4.083,4.083,0,1,1,4.239-3.883A4.079,4.079,0,0,1,7.423,11.7Z" transform="translate(71.836 707.477)"/>
    </g>
  </g>
</svg>
