<?xml version="1.0" encoding="UTF-8"?>
<svg width="31px" height="33px" viewBox="0 0 31 33" version="1.1" xmlns="http://www.w3.org/2000/svg" xmlns:xlink="http://www.w3.org/1999/xlink">
    <!-- Generator: Sketch 52.2 (67145) - http://www.bohemiancoding.com/sketch -->
    <title>My Experiences - Selected</title>
    <desc>Created with Sketch.</desc>
    <g id="Page-1" stroke="none" stroke-width="1" fill="none" fill-rule="evenodd">
        <g id="My-Experiences---Selected" fill="#E74D4D">
            <g id="Selected_My_Experiences">
                <path d="M20.269,16.275 C14.05,18.185 11.601,23.023 10.176,29.034 C8.7,23.127 6.333,18.159 0,16.289 C6.3,14.355 8.737,9.481 10.147,3.461 C11.577,9.457 14,14.39 20.269,16.275 Z" id="Path_134"></path>
                <path d="M30.564,7.332 C26.982,8.608 25.564,11.349 24.706,14.797 C23.84,11.284 22.406,8.539 18.873,7.341 C22.431,6.13 23.831,3.414 24.692,0 C25.632,3.31 26.924,6.14 30.564,7.332 Z" id="Path_135"></path>
                <path d="M30.564,25.035 C26.982,26.311 25.564,29.052 24.706,32.5 C23.84,28.987 22.406,26.242 18.873,25.044 C22.43,23.827 23.83,21.111 24.691,17.702 C25.632,21.013 26.924,23.843 30.564,25.035 Z" id="Path_136"></path>
            </g>
        </g>
    </g>
</svg>