<?xml version="1.0" encoding="UTF-8"?>
<svg width="33px" height="36px" viewBox="0 0 33 36" version="1.1" xmlns="http://www.w3.org/2000/svg" xmlns:xlink="http://www.w3.org/1999/xlink">
    <!-- Generator: Sketch 52.2 (67145) - http://www.bohemiancoding.com/sketch -->
    <title>My Experiences - Unselected</title>
    <desc>Created with Sketch.</desc>
    <g id="Page-1" stroke="none" stroke-width="1" fill="none" fill-rule="evenodd">
        <g id="My-Experiences---Unselected">
            <g id="Unselected_My_Experiences">
                <g id="Path_134" transform="translate(0.170000, 4.635000)">
                    <path d="M21.483,13.641 C14.892,15.665 12.296,20.793 10.783,27.164 C9.218,20.9 6.712,15.639 0,13.656 C6.68,11.606 9.26,6.441 10.754,0.056 C12.27,6.415 14.834,11.643 21.483,13.641 Z" id="Path"></path>
                    <path d="M10.7709179,23.5536537 C11.495822,21.4174461 12.3599005,19.6717911 13.4146223,18.191843 C14.8284464,16.2080307 16.5845566,14.7069759 18.7412205,13.6473598 C16.5681248,12.5893555 14.7996349,11.074646 13.3769321,9.06153297 C12.33887,7.59268379 11.4833231,5.85632896 10.7597456,3.72921562 C10.0412188,5.85251808 9.18378544,7.58897591 8.13704205,9.06174278 C6.71526718,11.0621815 4.9422245,12.5760422 2.75812674,13.6455269 C4.93678665,14.6979866 6.71034145,16.2115059 8.13805199,18.2277527 C9.18340683,19.7040329 10.0329437,21.4118576 10.7709179,23.5536537 Z M10.7859421,27.1638451 C9.21813202,20.9030647 6.7117219,15.6385536 2.10845951e-06,13.6564941 C6.68026209,11.6062641 9.26007175,6.44138336 10.7544823,0.0600032806 C12.2698622,6.41516304 14.833952,11.6429729 21.4827423,13.6407623 C14.8916321,15.6647625 12.2960825,20.792942 10.7859421,27.1638451 Z" id="Shape" fill="#E74D4D" fill-rule="nonzero"></path>
                </g>
                <g id="Path_135" transform="translate(20.024000, 0.847000)">
                    <path d="M12.54,7.771 C8.74,9.124 7.24,12.029 6.332,15.683 C5.414,11.96 3.899,9.05 0.15,7.783 C3.92,6.5 5.4,3.618 6.316,0 C7.313,3.508 8.686,6.507 12.54,7.771 Z" id="Path"></path>
                    <path d="M6.34476471,3.14174366 C5.58420181,4.93093204 4.43486023,6.60281944 2.51182938,7.7806077 C3.5376358,8.4110775 4.39908981,9.22308731 5.11751175,10.2322083 C5.5798912,10.8816833 5.98284531,11.6123266 6.33852768,12.4531136 C6.6895752,11.634901 7.08634186,10.9208927 7.54042053,10.2836485 C8.26603699,9.26531029 9.1398735,8.4400959 10.1838417,7.79179144 C9.14163589,7.15926838 8.26734924,6.33503056 7.53964996,5.30349827 C7.05672455,4.6189394 6.66762161,3.88441372 6.34476471,3.14174366 Z M6.31639099,-9.53674316e-07 C7.31266022,3.50792885 8.68647003,6.50722885 12.5404587,7.77091885 C8.74414825,9.12374878 7.24449921,12.0286684 6.33211899,15.6834183 C5.41450119,11.9605083 3.89912033,9.05034828 0.150001526,7.78140879 C3.92010117,6.49673843 5.4040184,3.61803913 6.31639099,-9.53674316e-07 Z" id="Shape" fill="#E74D4D" fill-rule="nonzero"></path>
                </g>
                <g id="Path_136" transform="translate(20.024000, 19.059000)">
                    <path d="M12.54,8.681 C8.74,10.034 7.24,12.939 6.332,16.593 C5.414,12.87 3.899,9.96 0.15,8.693 C3.92,7.403 5.404,4.524 6.316,0.912 C7.313,4.418 8.686,7.417 12.54,8.681 Z" id="Path"></path>
                    <path d="M6.34412003,4.05025101 C5.5832634,5.83845901 4.43332672,7.5100975 2.50994873,8.68944931 C3.53655243,9.32007599 4.39866638,10.1324921 5.11751175,11.1422043 C5.5798912,11.7916794 5.98284912,12.5223274 6.33853149,13.3631134 C6.68957901,12.5449028 7.08634186,11.8308945 7.54042053,11.1936455 C8.26603699,10.1753082 9.1398735,9.35009766 10.1838417,8.70179367 C9.14163589,8.06927109 8.26734924,7.24502563 7.53964996,6.21349335 C7.05638504,5.52845383 6.66711044,4.79345322 6.34412003,4.05025101 Z M6.31639099,0.909996033 C7.31266022,4.41791534 8.68647003,7.41722488 12.5404587,8.68092346 C8.74414825,10.0337563 7.24449921,12.9386749 6.33211899,16.5934143 C5.41450119,12.8705063 3.89912033,9.96034622 0.150001526,8.69140625 C3.92008972,7.40150452 5.4040184,4.52279663 6.31639099,0.909996033 Z" id="Shape" fill="#E74D4D" fill-rule="nonzero"></path>
                </g>
            </g>
        </g>
    </g>
</svg>