<svg xmlns="http://www.w3.org/2000/svg" xmlns:xlink="http://www.w3.org/1999/xlink" viewBox="0 0 91 93">
  <defs>
    <style>
      .cls-1 {
        clip-path: url(#clip-Artboard_7);
      }

      .cls-2 {
        fill: none;
        stroke-linecap: round;
      }

      .cls-3, .cls-4 {
        stroke: none;
      }

      .cls-4 {
        fill: #e74d4d;
      }

      .cls-5 {
        fill: none;
      }
    </style>
    <clipPath id="clip-Artboard_7">
      <rect width="91" height="93"/>
    </clipPath>
  </defs>
  <g id="Artboard_7" data-name="Artboard – 7" class="cls-1">
    <rect class="cls-5" width="91" height="93"/>
    <g id="Unselected_My_Experiences" data-name="Unselected My Experiences" transform="translate(-250 -241)">
      <g id="Path_134" data-name="Path 134" class="cls-2" transform="translate(280.17 261.635)">
        <path class="cls-3" d="M21.483,26.641c-6.591,2.024-9.187,7.152-10.7,13.523C9.218,33.9,6.712,28.639,0,26.656c6.68-2.05,9.26-7.215,10.754-13.6C12.27,19.415,14.834,24.643,21.483,26.641Z"/>
        <path class="cls-4" d="M 10.77091789245605 36.55365371704102 C 11.49582195281982 34.41744613647461 12.35990047454834 32.67179107666016 13.41462230682373 31.19184303283691 C 14.82844638824463 29.20803070068359 16.58455657958984 27.70697593688965 18.74122047424316 26.64735984802246 C 16.56812477111816 25.58935546875 14.79963493347168 24.07464599609375 13.37693214416504 22.06153297424316 C 12.33887004852295 20.59268379211426 11.483323097229 18.8563289642334 10.75974559783936 16.72921562194824 C 10.04121875762939 18.85251808166504 9.183785438537598 20.58897590637207 8.137042045593262 22.06174278259277 C 6.715267181396484 24.06218147277832 4.942224502563477 25.57604217529297 2.758126735687256 26.64552688598633 C 4.936786651611328 27.6979866027832 6.710341453552246 29.21150588989258 8.138051986694336 31.22775268554688 C 9.183406829833984 32.70403289794922 10.03294372558594 34.41185760498047 10.77091789245605 36.55365371704102 M 10.78594207763672 40.16384506225586 C 9.218132019042969 33.9030647277832 6.711721897125244 28.63855361938477 2.108459511873662e-06 26.656494140625 C 6.680262088775635 24.60626411437988 9.260071754455566 19.44138336181641 10.75448226928711 13.06000328063965 C 12.26986217498779 19.41516304016113 14.83395195007324 24.64297294616699 21.48274230957031 26.64076232910156 C 14.89163208007812 28.66476249694824 12.29608249664307 33.79294204711914 10.78594207763672 40.16384506225586 Z"/>
      </g>
      <g id="Path_135" data-name="Path 135" class="cls-2" transform="translate(262.024 270.847)">
        <path class="cls-3" d="M50.54,7.771c-3.8,1.353-5.3,4.258-6.208,7.912-.918-3.723-2.433-6.633-6.182-7.9C41.92,6.5,43.4,3.618,44.316,0,45.313,3.508,46.686,6.507,50.54,7.771Z"/>
        <path class="cls-4" d="M 44.34476470947266 3.141743659973145 C 43.58420181274414 4.93093204498291 42.43486022949219 6.602819442749023 40.5118293762207 7.7806077003479 C 41.53763580322266 8.411077499389648 42.39908981323242 9.223087310791016 43.11751174926758 10.23220825195312 C 43.57989120483398 10.88168334960938 43.98284530639648 11.61232662200928 44.33852767944336 12.4531135559082 C 44.6895751953125 11.63490104675293 45.08634185791016 10.9208927154541 45.54042053222656 10.28364849090576 C 46.26603698730469 9.265310287475586 47.13987350463867 8.440095901489258 48.18384170532227 7.791791439056396 C 47.14163589477539 7.159268379211426 46.26734924316406 6.335030555725098 45.53964996337891 5.303498268127441 C 45.05672454833984 4.618939399719238 44.66762161254883 3.884413719177246 44.34476470947266 3.141743659973145 M 44.31639099121094 -9.5367431640625e-07 C 45.31266021728516 3.507928848266602 46.68647003173828 6.507228851318359 50.54045867919922 7.770918846130371 C 46.74414825439453 9.123748779296875 45.24449920654297 12.02866840362549 44.33211898803711 15.68341827392578 C 43.41450119018555 11.96050834655762 41.89912033081055 9.050348281860352 38.15000152587891 7.781408786773682 C 41.92010116577148 6.496738433837891 43.40401840209961 3.618039131164551 44.31639099121094 -9.5367431640625e-07 Z"/>
      </g>
      <g id="Path_136" data-name="Path 136" class="cls-2" transform="translate(262.024 242.059)">
        <path class="cls-3" d="M50.54,55.681c-3.8,1.353-5.3,4.258-6.208,7.912-.918-3.723-2.433-6.633-6.182-7.9,3.77-1.29,5.254-4.169,6.166-7.781C45.313,51.418,46.686,54.417,50.54,55.681Z"/>
        <path class="cls-4" d="M 44.34412002563477 51.05025100708008 C 43.5832633972168 52.83845901489258 42.43332672119141 54.51009750366211 40.50994873046875 55.68944931030273 C 41.53655242919922 56.32007598876953 42.39866638183594 57.13249206542969 43.11751174926758 58.14220428466797 C 43.57989120483398 58.79167938232422 43.98284912109375 59.5223274230957 44.33853149414062 60.36311340332031 C 44.68957901000977 59.54490280151367 45.08634185791016 58.83089447021484 45.54042053222656 58.19364547729492 C 46.26603698730469 57.17530822753906 47.13987350463867 56.35009765625 48.18384170532227 55.7017936706543 C 47.14163589477539 55.06927108764648 46.26734924316406 54.24502563476562 45.53964996337891 53.21349334716797 C 45.0563850402832 52.5284538269043 44.66711044311523 51.79345321655273 44.34412002563477 51.05025100708008 M 44.31639099121094 47.90999603271484 C 45.31266021728516 51.41791534423828 46.68647003173828 54.4172248840332 50.54045867919922 55.68092346191406 C 46.74414825439453 57.03375625610352 45.24449920654297 59.93867492675781 44.33211898803711 63.59341430664062 C 43.41450119018555 59.87050628662109 41.89912033081055 56.96034622192383 38.15000152587891 55.69140625 C 41.92008972167969 54.40150451660156 43.40401840209961 51.52279663085938 44.31639099121094 47.90999603271484 Z"/>
      </g>
    </g>
  </g>
</svg>
