<svg xmlns="http://www.w3.org/2000/svg" xmlns:xlink="http://www.w3.org/1999/xlink" viewBox="0 0 91 93">
  <defs>
    <style>
      .cls-1 {
        clip-path: url(#clip-Artboard_20);
      }

      .cls-2 {
        fill: #e74d4d;
      }

      .cls-3 {
        fill: none;
        stroke: #e74d4d;
      }

      .cls-4 {
        fill: #fff;
      }
    </style>
    <clipPath id="clip-Artboard_20">
      <rect width="91" height="93"/>
    </clipPath>
  </defs>
  <g id="Artboard_20" data-name="Artboard – 20" class="cls-1">
    <rect class="cls-4" width="91" height="93"/>
    <g id="Group_69" data-name="Group 69" transform="translate(15.5 42.005)">
      <path id="Path_108" data-name="Path 108" class="cls-2" d="M10.275,3.813c-.012-.025-.025-.037-.05-.037L6.739,3.267,5.175.1a.07.07,0,0,0-.112,0L3.512,3.255l-3.5.509c-.025,0-.037.025-.05.037s0,.05.012.062L2.507,6.319l-.6,3.474c0,.025,0,.05.025.062a.055.055,0,0,0,.062,0L5.125,8.218,8.24,9.868a.043.043,0,0,1,.025.012A.046.046,0,0,0,8.3,9.868c.025-.012.025-.037.025-.062l-.6-3.474,2.531-2.457C10.275,3.85,10.287,3.825,10.275,3.813Z" transform="translate(0.041 -0.075)"/>
      <path id="Path_109" data-name="Path 109" class="cls-2" d="M10.275,3.813c-.012-.025-.025-.037-.05-.037L6.739,3.267,5.175.1a.07.07,0,0,0-.112,0L3.512,3.255l-3.5.509c-.025,0-.037.025-.05.037s0,.05.012.062L2.507,6.319l-.6,3.474c0,.025,0,.05.025.062a.055.055,0,0,0,.062,0L5.125,8.218,8.24,9.868a.043.043,0,0,1,.025.012A.046.046,0,0,0,8.3,9.868c.025-.012.025-.037.025-.062l-.6-3.474,2.531-2.457C10.275,3.85,10.287,3.825,10.275,3.813Z" transform="translate(12.629 -0.075)"/>
      <path id="Path_110" data-name="Path 110" class="cls-2" d="M10.275,3.813c-.012-.025-.025-.037-.05-.037L6.739,3.267,5.175.1a.07.07,0,0,0-.112,0L3.512,3.255l-3.5.509c-.025,0-.037.025-.05.037s0,.05.012.062L2.507,6.319l-.6,3.474c0,.025,0,.05.025.062a.055.055,0,0,0,.062,0L5.125,8.218,8.24,9.868a.043.043,0,0,1,.025.012A.046.046,0,0,0,8.3,9.868c.025-.012.025-.037.025-.062l-.6-3.474,2.531-2.457C10.275,3.85,10.287,3.825,10.275,3.813Z" transform="translate(25.217 -0.075)"/>
      <path id="Path_111" data-name="Path 111" class="cls-2" d="M10.275,3.813c-.012-.025-.025-.037-.05-.037L6.739,3.267,5.175.1a.07.07,0,0,0-.112,0L3.512,3.255l-3.5.509c-.025,0-.037.025-.05.037s0,.05.012.062L2.507,6.319l-.6,3.474c0,.025,0,.05.025.062a.055.055,0,0,0,.062,0L5.125,8.218,8.24,9.868a.043.043,0,0,1,.025.012A.046.046,0,0,0,8.3,9.868c.025-.012.025-.037.025-.062l-.6-3.474,2.531-2.457C10.275,3.85,10.287,3.825,10.275,3.813Z" transform="translate(37.804 -0.075)"/>
      <path id="Path_112" data-name="Path 112" class="cls-3" d="M10.275,3.813c-.012-.025-.025-.037-.05-.037L6.739,3.267,5.175.1a.07.07,0,0,0-.112,0L3.512,3.255l-3.5.509c-.025,0-.037.025-.05.037s0,.05.012.062L2.507,6.319l-.6,3.474c0,.025,0,.05.025.062a.055.055,0,0,0,.062,0L5.125,8.218,8.24,9.868a.043.043,0,0,1,.025.012A.046.046,0,0,0,8.3,9.868c.025-.012.025-.037.025-.062l-.6-3.474,2.531-2.457C10.275,3.85,10.287,3.825,10.275,3.813Z" transform="translate(50.665 -0.075)"/>
    </g>
  </g>
</svg>
