<svg xmlns="http://www.w3.org/2000/svg" xmlns:xlink="http://www.w3.org/1999/xlink" viewBox="0 0 91 93">
  <defs>
    <style>
      .cls-1 {
        clip-path: url(#clip-Artboard_22);
      }

      .cls-2 {
        fill: none;
        stroke: #fff;
      }

      .cls-3 {
        fill: #fff;
      }
    </style>
    <clipPath id="clip-Artboard_22">
      <rect width="91" height="93"/>
    </clipPath>
  </defs>
  <g id="Artboard_22" data-name="Artboard – 22" class="cls-1">
    <rect class="cls-3" width="91" height="93"/>
    <g id="Group_95" data-name="Group 95" transform="translate(-78.987 26.189)">
      <g id="Group_94" data-name="Group 94" transform="translate(114.522 11.689)">
        <path id="Path_103" data-name="Path 103" class="cls-2" d="M18.729,1.669c-2.3-2.591-6.255-1.9-8.69.491-.022.022-.022.022-.045,0C7.581-.23,3.6-.922,1.3,1.669-.819,4.06-.26,7.5,1.728,10.025a85.233,85.233,0,0,0,8.266,8.266c.022.022.022.022.045,0,.357-.357,5.63-4.781,8.266-8.266C20.248,7.456,20.851,4.06,18.729,1.669Z" transform="translate(0.047 -0.021)"/>
      </g>
    </g>
  </g>
</svg>
