<?xml version="1.0" encoding="UTF-8"?>
<svg width="12px" height="12px" viewBox="0 0 12 12" version="1.1" xmlns="http://www.w3.org/2000/svg" xmlns:xlink="http://www.w3.org/1999/xlink">
    <!-- Generator: Sketch 52.2 (67145) - http://www.bohemiancoding.com/sketch -->
    <title>Path_112</title>
    <desc>Created with Sketch.</desc>
    <g id="Page-1" stroke="none" stroke-width="1" fill="none" fill-rule="evenodd">
        <path d="M11.44,4.743 C11.428,4.718 11.415,4.706 11.39,4.706 L7.904,4.197 L6.34,1.03 C6.32678019,1.01237359 6.30603301,1.002 6.284,1.002 C6.26196699,1.002 6.24121981,1.01237359 6.228,1.03 L4.677,4.185 L1.177,4.694 C1.152,4.694 1.14,4.719 1.127,4.731 C1.114,4.743 1.127,4.781 1.139,4.793 L3.672,7.249 L3.072,10.723 C3.072,10.748 3.072,10.773 3.097,10.785 C3.11569762,10.7977583 3.14030238,10.7977583 3.159,10.785 L6.29,9.148 L9.405,10.798 C9.41442987,10.7991294 9.42322053,10.8033489 9.43,10.81 C9.44283201,10.8110752 9.4555272,10.8067225 9.465,10.798 C9.49,10.786 9.49,10.761 9.49,10.736 L8.89,7.262 L11.421,4.805 C11.44,4.78 11.452,4.755 11.44,4.743 Z" id="Path_112" stroke="#E74D4D"></path>
    </g>
</svg>