<?xml version="1.0" encoding="UTF-8"?>
<svg width="11px" height="10px" viewBox="0 0 11 10" version="1.1" xmlns="http://www.w3.org/2000/svg" xmlns:xlink="http://www.w3.org/1999/xlink">
    <!-- Generator: Sketch 52.2 (67145) - http://www.bohemiancoding.com/sketch -->
    <title>Path_108</title>
    <desc>Created with Sketch.</desc>
    <g id="Page-1" stroke="none" stroke-width="1" fill="none" fill-rule="evenodd">
        <path d="M10.816,3.743 C10.804,3.718 10.791,3.706 10.766,3.706 L7.28,3.197 L5.716,0.03 C5.70278019,0.012373591 5.68203301,0.002 5.66,0.002 C5.63796699,0.002 5.61721981,0.012373591 5.604,0.03 L4.053,3.185 L0.553,3.694 C0.528,3.694 0.516,3.719 0.503,3.731 C0.49,3.743 0.503,3.781 0.515,3.793 L3.048,6.249 L2.448,9.723 C2.448,9.748 2.448,9.773 2.473,9.785 C2.49169762,9.79775831 2.51630238,9.79775831 2.535,9.785 L5.666,8.148 L8.781,9.798 C8.79042987,9.79912941 8.79922053,9.80334893 8.806,9.81 C8.81883201,9.81107517 8.8315272,9.80672253 8.841,9.798 C8.866,9.786 8.866,9.761 8.866,9.736 L8.266,6.262 L10.797,3.805 C10.816,3.78 10.828,3.755 10.816,3.743 Z" id="Path_108" fill="#E74D4D"></path>
    </g>
</svg>